<svg width="36" height="36" viewBox="0 0 36 36" fill="none" xmlns="http://www.w3.org/2000/svg">
    <g clip-path="url(#clip0_0_503)">
        <path
            d="M15.8141 35.865C12.6034 35.4488 9.29813 34.0718 6.89063 32.1446C1.47038 27.8201 -0.989998 20.988 0.416252 14.2031C1.01925 11.2736 2.58975 8.19114 4.60013 5.97039C6.08107 4.3037 7.867 2.93551 9.86175 1.93951C12.51 0.597385 15.0413 -0.00561523 18.0293 -0.00561523C20.1735 -0.00561523 21.897 0.275635 23.8714 0.94951C26.4652 1.83921 28.8216 3.30934 30.7611 5.24784C32.7006 7.18634 34.1719 9.54204 35.0629 12.1354C36.1181 15.2291 36.3105 18.522 35.6366 21.7856C35.0978 24.3641 33.7084 27.2644 31.9984 29.3614C31.2953 30.2288 29.6775 31.7756 28.8281 32.4023C26.2871 34.2894 23.2986 35.4828 20.1566 35.865C19.2308 35.982 16.7108 35.9764 15.8153 35.865H15.8141ZM20.7191 34.3598C25.1047 33.6247 29.0187 31.1777 31.6001 27.5569C34.641 23.2853 35.4555 17.5545 33.7388 12.5573C33.3349 11.385 32.3325 9.42864 31.6001 8.39701C30.7856 7.24276 28.7696 5.22114 27.6098 4.40664C26.4848 3.61014 24.5689 2.64264 23.2616 2.21513C20.9019 1.43117 18.3962 1.18742 15.9297 1.50189C13.4631 1.81637 11.0988 2.68104 9.01125 4.03201C7.0472 5.32218 5.3683 7.00108 4.07813 8.96514C2.7275 11.0515 1.863 13.4147 1.54852 15.8802C1.23404 18.3456 1.47762 20.8501 2.26125 23.2088C2.69438 24.5149 3.66188 26.4375 4.45275 27.5625C5.27288 28.7168 7.28888 30.7384 8.44313 31.5529C9.48038 32.2796 11.4311 33.2809 12.6034 33.6915C15.2126 34.578 18.0001 34.8075 20.7191 34.3598ZM14.4844 28.3241C13.6433 28.1973 12.8363 27.9023 12.1118 27.4568C11.4615 27.0405 6.55088 22.23 6.31125 21.7789C6.03563 21.2636 6.516 20.3254 7.20225 20.0385L7.524 19.9035L6.534 18.8955C5.9895 18.3386 5.47313 17.7469 5.391 17.5826C5.1975 17.208 5.19188 16.4048 5.373 16.047C5.4495 15.9008 5.63063 15.678 5.77125 15.5543C6.012 15.3551 6.0345 15.2843 6.012 14.7803C5.98275 14.3348 6.02325 14.1593 6.21675 13.8251C6.498 13.3448 7.0785 13.0219 7.64663 13.0163C7.96275 13.0163 8.04488 12.9758 8.17988 12.7406C8.532 12.1253 9.53888 11.9025 10.3073 12.2783L10.7235 12.4774L10.9283 12.2783C11.2095 12.0206 11.772 11.7923 12.141 11.7923C12.879 11.7923 13.9219 12.6416 13.9219 13.239C13.9219 13.9534 13.2716 14.0771 12.627 13.4854C12.1995 13.0871 11.9824 13.0455 11.8069 13.3268C11.7191 13.4618 11.9295 13.7138 13.1895 14.985C14.4495 16.2506 14.6779 16.5206 14.6779 16.7603C14.6679 16.9439 14.5897 17.1173 14.4586 17.2463C14.3275 17.3753 14.1529 17.4507 13.9691 17.4578C13.7408 17.4578 13.3661 17.1293 11.637 15.4069C9.873 13.6485 9.55125 13.3673 9.41063 13.4561C9.02925 13.6969 9.15863 13.8724 11.2208 15.9401C12.3401 17.0651 13.2604 18.0608 13.2604 18.1553C13.2604 18.3488 13.0849 18.7065 12.9386 18.7999C12.8187 18.8526 12.6881 18.8768 12.5573 18.8708C12.3165 18.8764 11.9475 18.5423 9.9855 16.5859C8.01675 14.6284 7.66463 14.3123 7.524 14.4C7.137 14.6464 7.26638 14.8163 9.51075 17.0719C10.7359 18.297 11.7608 19.3928 11.79 19.5098C11.8541 19.7213 11.7135 20.0903 11.5268 20.2185C11.4028 20.2712 11.2687 20.2954 11.1341 20.2894C10.8934 20.2894 10.5896 20.0261 8.96625 18.4028C7.40138 16.8379 7.038 16.5161 6.83888 16.5341C6.27638 16.5983 6.4755 16.8503 9.38138 19.7629C11.9014 22.2885 12.2231 22.6463 12.2231 22.9095C12.2257 23.0062 12.2039 23.1019 12.1599 23.188C12.1159 23.2741 12.051 23.3477 11.9711 23.4023C11.52 23.76 11.3445 23.6779 10.2071 22.5765C9.62663 22.0196 9.02925 21.4808 8.87063 21.3806C8.58375 21.2051 7.857 21.1286 7.722 21.2693C7.67475 21.3098 8.74688 22.4415 10.1014 23.7825C12.357 26.0145 12.6146 26.244 13.2773 26.5601C13.8877 26.8641 14.56 27.0232 15.2419 27.0252C15.9238 27.0271 16.597 26.8719 17.2091 26.5714C19.1014 25.6691 20.151 23.4776 19.6346 21.4909C19.377 20.5009 19.0541 20.0261 17.7536 18.684C16.254 17.1484 15.9075 16.7265 15.5385 15.9885C15.1279 15.1628 14.9524 14.3595 14.9524 13.3571C14.9524 12.2726 15.0638 11.781 15.5441 10.7674C16.0009 9.80101 16.956 8.78739 17.8999 8.26539C19.7516 7.23376 22.1895 7.32151 23.958 8.47689C24.3101 8.70526 25.5814 9.90114 27.1631 11.4885C29.5133 13.8443 29.7821 14.1491 29.7821 14.418C29.7821 15.057 29.2601 15.7658 28.6808 15.912C28.4636 15.9705 28.5053 16.029 29.4896 17.0314C30.0634 17.6119 30.5966 18.2385 30.6788 18.432C30.9544 19.0946 30.8306 19.7381 30.3266 20.2658C30.069 20.5358 30.0341 20.6291 30.0274 21.168C30.0218 21.6428 29.9689 21.8419 29.781 22.1119C29.6326 22.3315 29.4339 22.5126 29.2015 22.64C28.969 22.7673 28.7095 22.8374 28.4445 22.8443C28.0811 22.8443 28.0114 22.8791 27.8291 23.1548C27.4185 23.7881 26.352 24.0098 25.6613 23.6003L25.3159 23.3955L25.0695 23.6363C24.525 24.1583 23.6453 24.228 22.9781 23.8005C22.4393 23.4608 22.041 22.986 22.041 22.6868C22.041 22.4235 22.4224 21.9893 22.6564 21.9893C22.8791 21.9893 23.1784 22.1648 23.5181 22.482C23.8579 22.8038 24.1515 22.8038 24.1976 22.4764C24.2213 22.3009 23.94 21.9668 22.8026 20.8238C21.6068 19.6166 21.3784 19.341 21.3784 19.107C21.3757 18.9764 21.3998 18.8466 21.4493 18.7256C21.5786 18.5321 21.942 18.3971 22.1636 18.4556C22.2806 18.4849 23.2706 19.3995 24.3551 20.4829C25.4453 21.573 26.4004 22.4629 26.4881 22.4629C26.7289 22.4629 26.8864 22.2221 26.775 22.0174C26.7221 21.924 25.8019 20.9801 24.7354 19.9136C23.0659 18.2498 22.7959 17.9393 22.7959 17.6929C22.7904 17.5602 22.8146 17.428 22.8668 17.3059C22.9669 17.1596 23.3179 16.9841 23.517 16.9841C23.6048 16.9841 24.7061 18.009 25.9661 19.2634C28.2746 21.5606 28.4445 21.6889 28.6853 21.3086C28.773 21.168 28.4569 20.8103 26.4994 18.8471C24.4778 16.8199 24.2089 16.515 24.2089 16.2518C24.2089 16.0706 24.291 15.8828 24.4204 15.7658C24.8479 15.3619 24.9773 15.444 27.0574 17.5118C29.0261 19.4749 29.2016 19.6031 29.4424 19.2285C29.5301 19.0879 29.1319 18.6548 26.6884 16.2045C24.0278 13.5326 23.8354 13.3155 23.8354 13.005C23.8354 12.5359 24.1054 12.3131 24.6263 12.3491C24.7196 12.3548 25.2821 12.8295 25.8626 13.3976C26.4488 13.9658 27.081 14.499 27.2689 14.5811C27.6379 14.733 28.0654 14.7566 28.2476 14.6396C28.4231 14.5283 23.5598 9.74139 22.9275 9.40726C22.3854 9.11467 21.7892 8.93612 21.1755 8.8826C20.5618 8.82908 19.9436 8.90172 19.359 9.09605C18.7745 9.29038 18.2359 9.60228 17.7764 10.0126C17.3168 10.4229 16.9462 10.9228 16.6871 11.4818C16.3823 12.132 16.3418 12.3255 16.3001 13.1636C16.2653 13.9545 16.2945 14.2009 16.4644 14.7049C16.7693 15.6015 17.0325 15.9705 18.3983 17.3655C19.8754 18.8775 20.1566 19.2229 20.5313 20.0318C21.5865 22.2818 21.141 24.8839 19.4006 26.6175C18.0765 27.9473 16.272 28.5683 14.4844 28.323V28.3241Z"
            fill="#F77E23" />
    </g>
    <defs>
        <clipPath id="clip0_0_503">
            <rect width="36" height="36" fill="white" />
        </clipPath>
    </defs>
</svg>